<svg width="933" height="885" xmlns="http://www.w3.org/2000/svg"><g transform="translate(0 -4)" fill="none" fill-rule="evenodd"><text font-family="Space Mono, monospace" font-size="16" fill="#000"><tspan x="19" y="39">Animation Starts</tspan></text><text font-family="Space Mono, monospace" font-size="16" fill="#000"><tspan x="0" y="888">Animation Finishes</tspan></text><g transform="translate(209 39)"><rect stroke="#AC43D9" fill="#D5A1EC" y="122" width="188" height="712" rx="8"/><circle stroke="#F7DE93" stroke-width="2" fill="#F8E4A8" cx="94" cy="62" r="41"/><circle stroke="#F7DE93" stroke-width="2" fill="#F8E4A8" opacity=".5" cx="94" cy="300" r="41"/><circle stroke="#F7DE93" stroke-width="2" fill="#F8E4A8" opacity=".5" cx="94" cy="502" r="41"/><circle stroke="#F7DE93" stroke-width="2" fill="#F8E4A8" cx="94" cy="739" r="41"/><g stroke="#D91A73" stroke-linecap="square"><path d="M108.618 246.633V229M101.75 246.633v-26.449M94.118 246.633v-35.266M87.25 246.633V216.51M80.382 246.633v-21.306"/></g><g stroke="#D91A73" stroke-linecap="square"><path d="M108.618 8.625v-3M101.75 8.625v-6M94.118 8.625V.375M87.25 8.625v-6M80.382 8.625v-3"/></g><g stroke="#D91A73" stroke-linecap="square"><path d="M108.618 447.519v-13.482M101.75 447.519v-19.26M94.118 447.519v-25.038M87.25 447.519v-16.371M80.382 447.519v-7.704"/></g><g stroke="#D91A73" stroke-linecap="square"><path d="M108.618 685.63v-10.371M101.75 685.63v-14.815M94.118 685.63v-19.26M87.25 685.63v-12.593M80.382 685.63v-5.926"/></g></g><text font-family="Space Mono, monospace" font-size="16" fill="#000"><tspan x="433" y="95">Mover is Dropped From</tspan> <tspan x="433" y="113">Rest and Experiences</tspan> <tspan x="433" y="131">Force of Gravity</tspan></text><text font-family="Space Mono, monospace" font-size="16" fill="#000"><tspan x="433" y="456">Mover Experiences Drag</tspan> <tspan x="433" y="474">Force from Fluid</tspan></text><text font-family="Space Mono, monospace" font-size="16" fill="#000"><tspan x="433" y="799">Mover Reaches Terminal</tspan> <tspan x="433" y="817">Velocity</tspan></text><path d="M81.438 64A9.5 9.5 0 0191 73.438c.03 4.737-3.41 8.686-7.94 9.434l4.88 751.236A9.5 9.5 0 1177 843.561c-.03-4.736 3.41-8.685 7.94-9.433L80.06 82.892A9.5 9.5 0 0181.438 64zm5.309 773.005l-.578.003a6.5 6.5 0 10.578-.003zM81.457 67a6.5 6.5 0 00-.204 12.995l.578-.003A6.5 6.5 0 0081.458 67z" fill="#D91A73" fill-rule="nonzero"/><rect stroke="#F27D16" fill-opacity=".5" fill="#F27D16" x="732" y="80" width="40" height="40" rx="2"/><rect stroke="#F27D16" fill-opacity=".5" fill="#F27D16" x="720" y="311" width="65" height="65" rx="2"/><rect stroke="#F27D16" fill-opacity=".5" fill="#F27D16" x="712" y="501" width="80" height="80" rx="2"/><text font-family="PTMono-Bold, PT Mono" font-size="21" font-weight="bold" fill="#000"><tspan x="752" y="19">Interpolation</tspan></text><text font-family="PTMono-Bold, PT Mono" font-size="21" font-weight="bold" fill="#000"><tspan x="240" y="19">Simulation</tspan></text><rect stroke="#F27D16" fill-opacity=".5" fill="#F27D16" x="692" y="737" width="120" height="120" rx="2"/><text font-family="Space Mono, monospace" font-size="16" fill="#000"><tspan x="830" y="107">Scale 0.5</tspan></text><text font-family="Space Mono, monospace" font-size="16" fill="#000"><tspan x="830" y="347">Scale 0.8</tspan></text><text font-family="Space Mono, monospace" font-size="16" fill="#000"><tspan x="830" y="547">Scale 1</tspan></text><text font-family="Space Mono, monospace" font-size="16" fill="#000"><tspan x="830" y="807">Scale 1.5</tspan></text></g></svg>