<svg width="1051" height="417" xmlns="http://www.w3.org/2000/svg"><g transform="translate(-4 -2)" fill="none" fill-rule="evenodd"><path stroke-opacity=".25" stroke="#D91A73" stroke-width="4" stroke-linecap="square" stroke-dasharray="5,10" d="M151 130l763 1"/><ellipse stroke="#AC43D9" stroke-width="2" fill-opacity=".5" fill="#AC43D9" cx="130.5" cy="130" rx="10.5" ry="10"/><circle stroke="#F2CA52" stroke-width="2" fill-opacity=".5" fill="#F2CA52" cx="950.5" cy="130.5" r="27.5"/><text font-family="AndaleMono, Andale Mono" font-size="16" fill="#000"><tspan x="145" y="193">Mover</tspan></text><text font-family="AndaleMono, Andale Mono" font-size="16" fill="#000"><tspan x="907" y="193">Attractor</tspan></text><ellipse stroke-opacity=".5" stroke="#AC43D9" stroke-width="2" fill-opacity=".1" fill="#AC43D9" cx="279.5" cy="130" rx="10.5" ry="10"/><ellipse stroke-opacity=".5" stroke="#AC43D9" stroke-width="2" fill-opacity=".1" fill="#AC43D9" cx="518.5" cy="130" rx="10.5" ry="10"/><ellipse stroke-opacity=".5" stroke="#AC43D9" stroke-width="2" fill-opacity=".1" fill="#AC43D9" cx="838.5" cy="130" rx="10.5" ry="10"/><path stroke="#F24444" fill="none" d="M130.5 276.5h79v79h-79z"/><path stroke="#F24444" fill-opacity=".15" fill="#F24444" d="M240.5 276.5h79v79h-79z"/><path stroke="#F24444" fill="#F24444" d="M887.5 276.5h79v79h-79z"/><path stroke="#F24444" fill-opacity=".5" fill="#F24444" d="M479.5 276.5h79v79h-79z"/><path stroke="#F24444" fill-opacity=".9" fill="#F24444" d="M798.5 276.5h79v79h-79z"/><text font-family="AndaleMono, Andale Mono" font-size="16" fill="#000"><tspan x="126" y="399">Opacity 0</tspan></text><text font-family="AndaleMono, Andale Mono" font-size="16" fill="#000"><tspan x="883" y="399">Opacity 1</tspan></text><path d="M967 38a9.5 9.5 0 010 19c-4.736 0-8.662-3.466-9.382-7.999H139.382A9.5 9.5 0 11130 38c4.736 0 8.663 3.466 9.382 8h818.236c.719-4.534 4.646-8 9.382-8zm-837 3a6.5 6.5 0 100 13 6.5 6.5 0 000-13zm837 0a6.5 6.5 0 100 13 6.5 6.5 0 000-13z" fill="#D91A73" fill-rule="nonzero"/><text font-family="AndaleMono, Andale Mono" font-size="16" fill="#000"><tspan x="53" y="16">Animation Starts</tspan></text><text font-family="AndaleMono, Andale Mono" font-size="16" fill="#000"><tspan x="884" y="15">Animation Finishes</tspan></text><text font-family="AndaleMono, Andale Mono" font-size="16" fill="#000"><tspan x="351" y="193">Mover Accelerates Towards </tspan> <tspan x="351" y="211">Attractor</tspan></text><text font-family="AndaleMono, Andale Mono" font-size="16" fill="#000"><tspan x="351" y="399">Opacity Changes at Rate of Position Change</tspan></text><text transform="rotate(-90 24 338)" font-family="PTMono-Bold, PT Mono" font-size="21" font-weight="bold" fill="#000"><tspan x="-58" y="333">Interpolation</tspan></text><text transform="rotate(-90 24 140)" font-family="PTMono-Bold, PT Mono" font-size="21" font-weight="bold" fill="#000"><tspan x="-39" y="135">Simulation</tspan></text></g></svg>