<svg xmlns="http://www.w3.org/2000/svg" width="90.24" height="45.536" viewBox="0 -1675 4985.6 2516" xmlns:xlink="http://www.w3.org/1999/xlink"><defs><path id="a" d="M51 0q-5 4-5 7 0 2 169 350t173 352q3 7 28 7 23 0 28-7 3-4 172-352T786 7q0-3-5-7H51zm456 344L384 596 137 92l246-1h247q0 2-123 253z"/><path id="b" d="M52 289q7 42 54 97t116 56q35 0 64-18t43-45q42 63 101 63 37 0 64-22t28-59q0-29-14-47t-27-22-23-4q-19 0-31 11t-12 29q0 46 50 63-11 13-40 13-13 0-19-2-38-16-56-66-60-221-60-258 0-28 16-40t35-12q37 0 73 33t49 81q3 10 6 11t16 2h4q15 0 15-8 0-1-2-11-16-57-62-101T333-11q-70 0-106 63-41-62-94-62h-6q-49 0-70 26T35 71q0 32 19 52t45 20q43 0 43-42 0-20-12-35t-23-20-13-5l-3-1q0-1 6-4t16-7 19-3q36 0 62 45 9 16 23 68t28 108 16 66q5 27 5 39 0 28-15 40t-34 12q-40 0-75-32t-49-82q-2-9-5-10t-16-2H58q-6 6-6 11z"/><path id="c" d="M377 694q0 8 5 14t15 6q7 0 12-5 5-4 10-19 10-37 41-57 11-7 11-18 0-9-3-12t-14-9q-43-22-75-63-2-2-5-6t-5-6-5-2-7-1q-7 0-13 5t-7 15q0 19 47 59H213l-171 1q-13 9-13 19 0 7 13 20h359q-24 38-24 59z"/><path id="d" d="M56 347q0 13 14 20h637q15-8 15-20 0-11-14-19l-318-1H72q-16 5-16 20zm0-194q0 15 16 20h636q14-10 14-20 0-13-15-20H70q-14 7-14 20z"/><path id="e" d="M173 380q0 25-19 25-24 0-50-29t-43-89q-1-1-2-3t-1-3-2-2-3-1-4 0-8 0H27q-6 6-6 9 0 7 8 29t24 52 44 51 63 22q42 0 65-24t24-56q0-17-3-26 0-6-15-44t-31-89-18-89q0-27 5-44 13-43 63-43 37 0 69 34t50 79 29 83 11 55q0 23-8 40t-18 26-18 18-8 22q0 22 19 41t41 19q19 0 34-18t16-58q0-27-12-83t-37-125-71-119-106-51q-64 0-102 33-37 32-37 95 0 31 8 64t41 117q22 64 22 82z"/><path id="f" d="M96 585q56 81 153 81 48 0 96-26t78-92q37-83 37-228 0-155-43-237-20-42-55-67t-61-31-51-7q-26 0-52 6t-61 32-55 67q-43 82-43 237 0 174 57 265zm225 12q-30 32-71 32-42 0-72-32-25-26-33-72t-8-192q0-158 8-208t36-79q28-30 69-30 40 0 68 30 29 30 36 84t8 203q0 145-8 191t-33 73z"/><path id="g" d="M109 429q-27 0-43 18t-16 44q0 71 53 123t132 52q91 0 152-56t62-145q0-43-20-82t-48-68-80-74q-36-31-100-92l-59-56 76-1q157 0 167 5 7 2 24 89v3h40v-3q-1-3-13-91T421 3V0H50v31q0 7 6 15t30 35q29 32 50 56 9 10 34 37t34 37 29 33 28 34 23 30 21 32 15 29 13 32 7 30 3 33q0 63-34 109t-97 46q-33 0-58-17t-35-33-10-19q0-1 5-1 18 0 37-14t19-46q0-25-16-42t-45-18z"/><path id="h" d="M84 237v13l14 20h581q15-8 15-20t-15-20H98q-14 7-14 20z"/><path id="i" d="M33 157q0 101 76 192t171 92q51 0 90-49 16 30 46 30 13 0 23-8t10-20q0-13-37-160T374 68q0-25 7-33t21-9q9 1 20 9 21 20 41 96 6 20 10 21 2 1 10 1h4q19 0 19-9 0-6-5-27t-20-54-32-50Q436 0 417-8q-8-2-24-2-34 0-57 15t-30 31l-6 15q-1 1-4-1l-4-4q-59-56-120-56-55 0-97 40T33 157zm318 171q0 6-5 22t-23 35-46 20q-35 0-67-31t-50-81q-29-79-41-164v-11q0-8-1-12 0-45 18-62t43-18q38 0 75 33t44 51q2 4 27 107t26 111z"/></defs><g data-mml-node="math" stroke="currentColor" fill="currentColor" stroke-width="0"><use xlink:href="#a" data-mml-node="mi" transform="scale(1 -1)"/><g data-mml-node="TeXAtom"><g data-mml-node="mover"><use xlink:href="#b" data-mml-node="mi" transform="matrix(1 0 0 -1 833 0)"/><use xlink:href="#c" data-mml-node="mo" transform="matrix(1 0 0 -1 896.8 14)"/></g></g><use xlink:href="#d" data-mml-node="mo" transform="matrix(1 0 0 -1 1682.8 0)"/><g data-mml-node="TeXAtom"><g data-mml-node="mfrac"><g data-mml-node="msup"><g data-mml-node="TeXAtom"><g data-mml-node="mover"><g data-mml-node="msub"><use xlink:href="#e" data-mml-node="mi" transform="matrix(1 0 0 -1 3216 -676)"/><use xlink:href="#f" data-mml-node="mn" transform="matrix(.707 0 0 -.707 3701 -526)"/></g><use xlink:href="#c" data-mml-node="mo" transform="matrix(1 0 0 -1 3438.1 -663)"/></g></g><use xlink:href="#g" data-mml-node="mn" transform="matrix(.707 0 0 -.707 4104.6 -1204.1)"/></g><g data-mml-node="mrow"><use xlink:href="#h" data-mml-node="mo" transform="matrix(1 0 0 -1 2958.6 759)"/><use xlink:href="#g" data-mml-node="mn" transform="matrix(1 0 0 -1 3736.6 759)"/><g data-mml-node="TeXAtom"><g data-mml-node="mover"><use xlink:href="#i" data-mml-node="mi" transform="matrix(1 0 0 -1 4236.6 759)"/><use xlink:href="#c" data-mml-node="mo" transform="matrix(1 0 0 -1 4251.1 774)"/></g></g></g><path stroke="none" d="M2858.6-220h2007v-60h-2007z"/></g></g></g></svg>