<svg width="232" height="165" xmlns="http://www.w3.org/2000/svg"><g fill="none" fill-rule="evenodd"><path d="M188.122.925l.145.006 18.282 1.666a1.5 1.5 0 011.144 2.276l-.075.11-10.917 14.759a1.5 1.5 0 01-2.492-1.664l.08-.12 7.513-10.156-9.264 4.154L2.614 97.119a1.5 1.5 0 01-1.357-2.672l.13-.066L191.31 9.22l9.264-4.154-12.58-1.146a1.5 1.5 0 01-1.364-1.486l.006-.144A1.5 1.5 0 01187.98.932l.142-.007z" fill="#D91A73" fill-rule="nonzero"/><path stroke-opacity=".5" stroke="#D91A73" stroke-width="3" fill-opacity=".5" fill="#D91A73" stroke-linecap="round" stroke-linejoin="round" stroke-dasharray="6" d="M1.5 96.5h205M206.5 4.5v92"/><text font-family="Space Mono, monospace" font-size="16" fill="#000" transform="translate(1 4)"><tspan x="19" y="16">√5²+2² = √29</tspan></text><text font-family="Space Mono, monospace" font-size="16" fill="#000" transform="translate(1 4)"><tspan x="220" y="52">2</tspan></text><text font-family="Space Mono, monospace" font-size="16" fill="#000" transform="translate(1 4)"><tspan x="93" y="126">5</tspan></text><text font-family="Space Mono, monospace" font-size="16" fill="#000"><tspan x="5" y="161">v = (5, 2), mag = √29</tspan></text></g></svg>