<svg xmlns="http://www.w3.org/2000/svg" xmlns:xlink="http://www.w3.org/1999/xlink" width="295" height="295" viewBox="0 0 295 295">
    <defs>
        <path id="b" d="M0 0h280v280H0z"/>
        <filter id="a" width="110.7%" height="110.7%" x="-8%" y="-2.7%" filterUnits="objectBoundingBox">
            <feOffset dx="-15" dy="15" in="SourceAlpha" result="shadowOffsetOuter1"/>
            <feColorMatrix in="shadowOffsetOuter1" values="0 0 0 0 0 0 0 0 0 0 0 0 0 0 0 0 0 0 0.5 0"/>
        </filter>
    </defs>
    <g fill="none" fill-rule="evenodd">
        <g transform="translate(15)">
            <use fill="#000" filter="url(#a)" xlink:href="#b"/>
            <use fill="#D8D8D8" xlink:href="#b"/>
        </g>
        <path fill="#5443A6" d="M15 0h280v280H15z"/>
        <path fill="#30265F" d="M203.043 44L295 162v118H152.219l-53.433-51.504 9.525-84.996s44.22 42.873 73.974 0c8.81-12.694 15.73-45.86 20.758-99.5z"/>
        <path fill="#F8F7FE" fill-rule="nonzero" d="M108.601 235c4.864-.177 8.18-2.345 9.948-6.504 1.68-3.982 2.52-9.247 2.52-15.795-.176-10.087-1.547-19.865-4.111-29.333-2.742-9.38-4.82-18.538-6.235-27.476l.531-.53c4.864 7.786 10.39 12.963 16.58 15.529 6.19 2.3 11.452 3.45 15.785 3.45 7.251-.176 14.016-2.432 20.294-6.768 6.367-4.336 11.54-9.955 15.52-16.857h.53c.708 6.548 3.316 12.078 7.826 16.591 4.422 4.513 10.877 6.858 19.366 7.035 6.898-.177 12.336-1.77 16.315-4.778 4.157-2.92 7.119-6.548 8.887-10.884a52.418 52.418 0 0 0 4.112-14.203c.354-5.043.531-9.733.531-14.07h-6.765c0 7.08-.928 14.336-2.785 21.769-1.061 3.185-2.565 5.973-4.51 8.362-2.034 2.566-4.687 3.85-7.959 3.85-8.312-.178-12.291-6.726-11.938-19.645V44h-23.876v96.363c-1.591 3.628-4.952 7.256-10.08 10.884-5.218 3.982-11.452 6.105-18.703 6.37-8.136 0-14.105-2.388-17.907-7.167-3.98-4.513-5.969-10.485-5.969-17.918V44H102.5v112.954c-.177 8.406-1.238 17.21-3.184 26.414-2.034 9.468-3.14 19.246-3.316 29.333 0 6.548.929 11.813 2.786 15.795 1.768 4.16 5.04 6.327 9.815 6.504z"/>
    </g>
</svg>
