<svg xmlns="http://www.w3.org/2000/svg" xmlns:xlink="http://www.w3.org/1999/xlink" width="295" height="295" viewBox="0 0 295 295">
    <defs>
        <path id="a" d="M0 0h280v280H0z"/>
        <filter id="b" width="110.7%" height="110.7%" x="-8%" y="-2.7%" filterUnits="objectBoundingBox">
            <feOffset dx="-15" dy="15" in="SourceAlpha" result="shadowOffsetOuter1"/>
            <feColorMatrix in="shadowOffsetOuter1" values="0 0 0 0 0 0 0 0 0 0 0 0 0 0 0 0 0 0 0.5 0"/>
        </filter>
    </defs>
    <g fill="none" fill-rule="evenodd" transform="translate(15)">
        <mask id="c" fill="#fff">
            <use xlink:href="#a"/>
        </mask>
        <use fill="#000" filter="url(#b)" xlink:href="#a"/>
        <use fill="#D8D8D8" xlink:href="#a"/>
        <path fill="#30265F" d="M0 0h280v280H0z" mask="url(#c)"/>
        <path fill="#F8F7FE" fill-rule="nonzero" stroke="#F8F7FE" stroke-linejoin="round" stroke-width="10" d="M205.788 178.044c5.334 27.05 1.666 48.04-11.683 55.759-3.525 2.036-7.564 3.029-11.99 3.029-12.089 0-26.89-7.475-41.937-20.658C125.108 229.462 110.308 237 98.221 237c-4.439 0-8.486-.998-11.944-3.026-13.388-7.714-17.1-28.74-11.805-55.877C48.368 169.226 32 155.503 32 140.021c0-15.432 16.274-29.11 42.297-38.02-5.336-27.051-1.668-48.043 11.682-55.762 2.148-1.24 4.488-2.094 6.99-2.571v-.5h5c12.089 0 26.89 7.475 41.937 20.658C154.976 50.538 169.776 43 181.863 43h12.046l-2.08 2.087c.792.344 1.552.728 2.272 1.15 13.338 7.685 16.806 28.385 11.43 55.709C231.635 110.818 248 124.54 248 140.021c0 15.43-16.283 29.15-42.212 38.023zm-24.054-61.669a200.356 200.356 0 0 1-3.731 10.375l4.658 1.816 4.453-2.275c-1.846-3.613-3.587-6.832-5.38-9.916zm-.536-.924c-1.675-2.9-3.52-5.884-5.878-9.551l-4.206 2.703-.733 4.946c3.754.557 7.358 1.19 10.817 1.902zm.784.163c1.756.37 3.476.76 5.158 1.173l-3.617-6.231a158.545 158.545 0 0 1-1.541 5.058zm.111 48.783c.549 1.69 1.07 3.382 1.562 5.072l3.61-6.256c-1.701.417-3.427.812-5.172 1.184zm-.92.194c-3.511.728-7.1 1.364-10.745 1.901l.728 4.947 4.222 2.678c2.312-3.644 4.129-6.616 5.794-9.526zm.624-1.096c1.715-3.01 3.426-6.211 5.317-9.912l-4.453-2.275-4.64 1.864a175.804 175.804 0 0 1 3.776 10.323zm-42.473 24.566a179.033 179.033 0 0 1-6.978-8.378l-3.935 3.085-.223 4.995c4.19.186 7.724.287 11.136.298zm1.483 0a213.5 213.5 0 0 0 11.1-.3l-.276-4.993-3.967-3.043a159.125 159.125 0 0 1-6.857 8.336zm-.739.833a158.44 158.44 0 0 1-3.6 3.896l7.212-.02a150.572 150.572 0 0 1-3.612-3.876zm-42.092-24.466c-1.756-.37-3.476-.76-5.158-1.173l3.618 6.231c.473-1.655.987-3.342 1.54-5.058zm.248-.761c1.1-3.36 2.348-6.825 3.731-10.375l-4.658-1.816-4.453 2.275c1.846 3.613 3.587 6.833 5.38 9.916zm.542.926a283.566 283.566 0 0 0 5.872 9.55l4.206-2.704.733-4.946a197.292 197.292 0 0 1-10.811-1.9zm41.868-72.612a179.032 179.032 0 0 1 6.978 8.378l3.935-3.085.223-4.995c-4.19-.186-7.724-.287-11.136-.298zm-1.483 0c-3.934.012-7.606.109-11.1.301l.276 4.992 3.967 3.043a159.125 159.125 0 0 1 6.857-8.336zm.739-.833a158.437 158.437 0 0 1 3.6-3.896l-7.212.02a150.573 150.573 0 0 1 3.612 3.876zm-41.72 25.384a243.934 243.934 0 0 0-5.326 9.885l4.453 2.275 4.64-1.864a175.801 175.801 0 0 1-3.767-10.296zm-.296-.902c-.552-1.7-1.076-3.4-1.571-5.099l-3.646 6.264c1.73-.41 3.47-.8 5.217-1.165zm.918-.19c3.558-.728 7.142-1.36 10.738-1.89l-.728-4.947-4.222-2.678c-2.31 3.64-4.124 6.608-5.788 9.515z" mask="url(#c)"/>
        <g fill="#7860ED" fill-rule="nonzero" mask="url(#c)">
            <g transform="translate(37 48)">
                <path d="M206 92.021c0-13.687-17.09-26.659-43.291-34.703 6.046-26.785 3.36-48.095-8.482-54.917-2.73-1.6-5.92-2.359-9.406-2.359v9.392c1.932 0 3.486.379 4.787 1.095 5.71 3.285 8.188 15.793 6.257 31.88-.462 3.96-1.218 8.129-2.142 12.382-8.23-2.021-17.215-3.58-26.663-4.59-5.669-7.791-11.547-14.867-17.468-21.057 13.689-12.761 26.538-19.752 35.271-19.752V0c-11.547 0-26.663 8.255-41.947 22.574C87.632 8.339 72.516.168 60.969.168V9.56c8.691 0 21.582 6.949 35.27 19.626A198.784 198.784 0 0 0 78.9 50.2c-9.49 1.01-18.476 2.569-26.706 4.633a127.399 127.399 0 0 1-2.184-12.214c-1.973-16.088.462-28.596 6.13-31.923 1.26-.758 2.898-1.095 4.83-1.095V.211c-3.527 0-6.719.758-9.49 2.358-11.799 6.823-14.444 28.09-8.356 54.791C17.006 65.447 0 78.376 0 92.021c0 13.687 17.09 26.659 43.291 34.703-6.046 26.785-3.36 48.095 8.482 54.918 2.73 1.6 5.92 2.358 9.448 2.358 11.547 0 26.663-8.255 41.947-22.574 15.284 14.235 30.4 22.406 41.947 22.406 3.527 0 6.719-.759 9.49-2.359 11.799-6.823 14.444-28.09 8.356-54.791C188.994 118.638 206 105.666 206 92.022zm-54.67-28.09c-1.554 5.432-3.485 11.034-5.669 16.635-1.721-3.37-3.527-6.739-5.5-10.108-1.932-3.369-3.99-6.654-6.047-9.855 5.963.885 11.715 1.98 17.216 3.327zm-19.231 44.852c-3.276 5.685-6.635 11.076-10.12 16.088-6.256.547-12.597.842-18.979.842-6.34 0-12.68-.295-18.895-.8a232.25 232.25 0 0 1-10.162-16.004 219.606 219.606 0 0 1-8.733-16.762c2.603-5.643 5.542-11.286 8.691-16.803 3.276-5.686 6.635-11.077 10.12-16.088A217.834 217.834 0 0 1 103 58.413c6.34 0 12.68.295 18.895.8a232.25 232.25 0 0 1 10.162 16.004 219.606 219.606 0 0 1 8.733 16.762 236.061 236.061 0 0 1-8.691 16.804zm13.562-5.475a180.853 180.853 0 0 1 5.795 16.762 187.95 187.95 0 0 1-17.3 3.369c2.058-3.243 4.115-6.57 6.047-9.981 1.931-3.37 3.737-6.781 5.458-10.15zm-42.577 44.936c-3.905-4.043-7.81-8.549-11.673-13.476 3.779.168 7.642.294 11.547.294 3.947 0 7.852-.084 11.673-.294a164.251 164.251 0 0 1-11.547 13.476zm-31.24-24.805c-5.963-.885-11.715-1.98-17.216-3.327 1.554-5.433 3.485-11.034 5.669-16.636 1.721 3.37 3.527 6.739 5.5 10.108a279.076 279.076 0 0 0 6.047 9.855zm31.03-87.641c3.905 4.043 7.81 8.549 11.673 13.476-3.779-.168-7.642-.294-11.547-.294-3.947 0-7.852.084-11.673.294a164.251 164.251 0 0 1 11.547-13.476zM71.802 60.603c-2.058 3.243-4.115 6.57-6.047 9.982a238.138 238.138 0 0 0-5.458 10.107 180.853 180.853 0 0 1-5.795-16.762 203.379 203.379 0 0 1 17.3-3.327zm-38 52.728c-14.865-6.36-24.48-14.698-24.48-21.31 0-6.612 9.615-14.993 24.48-21.31 3.61-1.558 7.558-2.948 11.63-4.254 2.394 8.255 5.543 16.846 9.448 25.648-3.863 8.76-6.97 17.31-9.322 25.522-4.156-1.306-8.103-2.738-11.757-4.296zm22.59 60.182c-5.71-3.285-8.188-15.793-6.257-31.88.462-3.96 1.218-8.129 2.142-12.382 8.23 2.021 17.215 3.58 26.663 4.59 5.669 7.791 11.547 14.867 17.468 21.058-13.689 12.76-26.538 19.751-35.271 19.751-1.89-.042-3.486-.42-4.745-1.137zm99.599-32.091c1.973 16.088-.462 28.596-6.13 31.923-1.26.758-2.898 1.095-4.83 1.095-8.691 0-21.582-6.949-35.27-19.626A198.784 198.784 0 0 0 127.1 133.8c9.49-1.01 18.476-2.569 26.706-4.633.966 4.254 1.722 8.34 2.184 12.256zm16.166-28.09c-3.612 1.557-7.559 2.947-11.632 4.253-2.393-8.255-5.542-16.846-9.447-25.648 3.863-8.76 6.97-17.31 9.322-25.522 4.156 1.306 8.103 2.738 11.799 4.296 14.864 6.36 24.48 14.698 24.48 21.31-.043 6.612-9.658 14.993-24.522 21.31z"/>
                <circle cx="102" cy="92" r="19"/>
            </g>
        </g>
    </g>
</svg>
