<svg xmlns="http://www.w3.org/2000/svg" xmlns:xlink="http://www.w3.org/1999/xlink" width="1440" height="800" viewBox="0 0 1440 800">
    <defs>
        <linearGradient id="b" x1="75.395%" x2="-48.207%" y1="18.221%" y2="88.757%">
            <stop offset="0%" stop-color="#5443A6"/>
            <stop offset="100%" stop-color="#30265F"/>
        </linearGradient>
        <path id="a" d="M.536.382h1440v800H.536z"/>
    </defs>
    <g fill="none" fill-rule="evenodd" transform="translate(0 -.382)">
        <mask id="c" fill="#fff">
            <use xlink:href="#a"/>
        </mask>
        <use fill="url(#b)" xlink:href="#a"/>
        <g mask="url(#c)">
            <path fill="#5443A6" d="M152.965 600.436C56.279 683.937 8.429 758.51 29.912 807.919c47.963 110.307 423.339 53.417 838.425-127.068 183.373-79.733 343.82-170.248 461.674-255.968-104.472 62.724-226.947 125.759-360.654 183.897C527.22 801.026 129.687 866.92 81.439 755.959c-16.404-37.727 9.682-91.041 68.638-152.538z"/>
            <path fill="#3E327B" d="M497.692 265.228c480.932-209.115 929.137-244.48 1001.094-78.991 71.956 165.49-259.583 469.167-740.515 678.282a2796.453 2796.453 0 0 1-57.668 24.313 2798.647 2798.647 0 0 1-68.68 30.965c-480.931 209.115-929.136 244.481-1001.093 78.991s259.583-469.166 740.515-678.281a2796.433 2796.433 0 0 1 57.713-24.332l-2 .935a2789.98 2789.98 0 0 1 70.634-31.882zm-57.42 26.552l-10.838 5.07C-11.002 504.055-311.824 763.944-254.44 895.916c57.405 132.023 452.922 89.176 905.057-91.805l.016-.005c446.306-208.013 752.522-471.073 694.671-604.12-57.382-131.971-452.613-89.21-904.529 91.594l-.502.201z"/>
        </g>
        <circle cx="91.166" cy="223.027" r="74" fill="#493A92" mask="url(#c)"/>
        <path fill="#5443A6" d="M364.64 116.5c0 21.263 17.239 38.5 38.503 38.5a38.336 38.336 0 0 0 23.498-8c-7.04 9.124-18.083 15-30.499 15-21.264 0-38.501-17.237-38.501-38.5 0-12.415 5.876-23.457 15-30.498-5.016 6.501-8 14.651-8 23.498z" mask="url(#c)"/>
        <circle cx="180.957" cy="248.942" r="24" fill="#3E327B" mask="url(#c)"/>
    </g>
</svg>
